<?xml version="1.0" encoding="utf-8"?>
<!-- Generator: Adobe Illustrator 16.0.0, SVG Export Plug-In . SVG Version: 6.00 Build 0)  -->
<!DOCTYPE svg PUBLIC "-//W3C//DTD SVG 1.1//EN" "http://www.w3.org/Graphics/SVG/1.1/DTD/svg11.dtd">
<svg version="1.1" id="Layer_1" xmlns="http://www.w3.org/2000/svg" xmlns:xlink="http://www.w3.org/1999/xlink" x="0px" y="0px"
	 width="278px" height="56px" viewBox="0 0 278 56" enable-background="new 0 0 278 56" xml:space="preserve">
<g>
	<g>
		<path fill="#1C2939" d="M0.179,0.331h10.997c4.878,0,7.854,2.562,7.854,7.606c0,3.928-1.571,6.573-4.92,7.277v0.082
			c4.052,0.537,4.672,2.77,4.755,9.012c0.041,3.102,0.207,4.714,1.322,5.293v0.248h-6.449c-0.578-0.827-0.703-1.943-0.743-3.101
			l-0.166-5.665c-0.083-2.314-1.117-3.721-3.514-3.721H6.131V29.85H0.179V0.331z M6.131,13.229h2.48c2.854,0,4.466-1.24,4.466-4.424
			c0-2.728-1.447-4.093-4.135-4.093H6.131V13.229z"/>
		<path fill="#1C2939" d="M30.336,7.027c6.863-0.123,8.765,3.97,8.765,11.701c0,7.606-2.233,11.699-8.765,11.699
			c-6.863,0.125-8.765-3.969-8.765-11.699C21.571,11.121,23.804,7.027,30.336,7.027z M30.336,26.541
			c2.315,0,3.059-2.273,3.059-7.812c0-5.541-0.743-7.814-3.059-7.814c-2.812,0-3.06,3.267-3.06,7.814
			C27.276,23.275,27.524,26.541,30.336,26.541z"/>
		<path fill="#1C2939" d="M41.843,7.607h5.458v2.604h0.083c1.198-2.192,3.266-3.185,5.664-3.185c3.556,0,5.663,1.943,5.663,6.326
			V29.85h-5.706V14.511c0-2.231-0.743-3.101-2.438-3.101c-1.942,0-3.018,1.199-3.018,3.68v14.76h-5.706V7.607z"/>
		<path fill="#1C2939" d="M62.029,14.428v-0.537c0-5.127,3.514-6.863,7.813-6.863c6.78,0,8.062,2.812,8.062,6.822v11.7
			c0,2.067,0.123,3.017,0.702,4.3H73.15c-0.372-0.704-0.537-1.572-0.703-2.315h-0.083c-1.322,2.315-2.935,2.894-5.663,2.894
			c-3.97,0-5.375-3.39-5.375-6.367c0-4.175,1.695-5.87,5.623-6.945l3.225-0.867c1.694-0.455,2.273-1.117,2.273-2.605
			c0-1.694-0.743-2.729-2.646-2.729c-1.736,0-2.646,1.158-2.646,2.895v0.619H62.029z M72.447,18.729
			c-0.785,0.578-1.736,0.95-2.438,1.115c-2.314,0.496-3.226,1.613-3.226,3.598c0,1.694,0.621,3.1,2.15,3.1s3.514-0.991,3.514-3.431
			V18.729z"/>
		<path fill="#1C2939" d="M81.566,0.331h5.704V29.85h-5.704V0.331z"/>
		<path fill="#1C2939" d="M102.237,27.492h-0.083c-1.24,2.067-2.811,2.936-5.044,2.936c-4.671,0-6.82-3.432-6.82-11.699
			c0-8.27,2.149-11.701,6.82-11.701c2.15,0,3.597,0.869,4.796,2.646h0.082V0.331h5.706V29.85h-5.457V27.492z M98.972,26.045
			c2.521,0,3.017-2.48,3.017-7.316c0-4.838-0.496-7.318-3.017-7.318c-2.481,0-2.978,2.48-2.978,7.318
			C95.994,23.564,96.49,26.045,98.972,26.045z"/>
		<path fill="#1C2939" d="M127.335,0.331h7.358l7.814,29.519h-6.201l-1.364-6.244h-7.855l-1.364,6.244h-6.201L127.335,0.331z
			 M128.121,18.729h5.787l-2.852-13.271h-0.083L128.121,18.729z"/>
		<path fill="#1C2939" d="M150.54,23.4v6.449h-5.458V23.4H150.54z"/>
		<path fill="#1C2939" d="M162.86,25.508l10.873-20.299h-10.129V0.331h16.991v4.506l-11.038,20.134h11.204v4.879H162.86V25.508z"/>
		<path fill="#1C2939" d="M183.323,0h5.705v4.879h-5.705V0z M183.323,7.607h5.705V29.85h-5.705V7.607z"/>
		<path fill="#1C2939" d="M196.884,22.573v0.743c0,1.943,1.034,3.225,2.977,3.225c1.736,0,2.894-0.867,2.894-2.646
			c0-1.446-0.949-2.108-2.066-2.521l-4.01-1.446c-3.142-1.117-4.755-3.061-4.755-6.202c0-3.679,2.315-6.698,8.186-6.698
			c5.168,0,7.606,2.316,7.606,6.326v0.91h-5.125c0-2.233-0.662-3.35-2.521-3.35c-1.448,0-2.688,0.827-2.688,2.398
			c0,1.074,0.578,1.984,2.479,2.604l3.433,1.157c3.596,1.199,4.919,3.018,4.919,6.367c0,4.672-3.473,6.986-8.269,6.986
			c-6.407,0-8.186-2.811-8.186-7.069v-0.785H196.884z"/>
		<path fill="#1C2939" d="M210.777,7.607h5.456v2.273h0.083c1.447-2.025,3.225-2.854,5.623-2.854c2.604,0,4.506,1.283,5.126,3.557
			h0.083c0.868-2.357,2.936-3.557,5.622-3.557c3.763,0,5.54,2.357,5.54,6.656V29.85h-5.706V14.305c0-1.861-0.62-2.895-2.231-2.895
			c-1.819,0-2.977,1.24-2.977,3.805V29.85h-5.706V14.305c0-1.861-0.619-2.895-2.231-2.895c-1.82,0-2.978,1.24-2.978,3.805V29.85
			h-5.704V7.607z"/>
		<path fill="#1C2939" d="M241.676,14.428v-0.537c0-5.127,3.514-6.863,7.812-6.863c6.78,0,8.062,2.812,8.062,6.822v11.7
			c0,2.067,0.123,3.017,0.702,4.3h-5.457c-0.372-0.704-0.537-1.572-0.703-2.315h-0.082c-1.323,2.315-2.935,2.894-5.664,2.894
			c-3.969,0-5.374-3.39-5.374-6.367c0-4.175,1.694-5.87,5.622-6.945l3.225-0.867c1.694-0.455,2.273-1.117,2.273-2.605
			c0-1.694-0.743-2.729-2.646-2.729c-1.736,0-2.646,1.158-2.646,2.895v0.619H241.676z M252.093,18.729
			c-0.785,0.578-1.736,0.95-2.438,1.115c-2.316,0.496-3.226,1.613-3.226,3.598c0,1.694,0.62,3.1,2.15,3.1
			c1.529,0,3.514-0.991,3.514-3.431V18.729z"/>
		<path fill="#1C2939" d="M261.133,7.607h5.457v2.604h0.083c1.199-2.192,3.267-3.185,5.663-3.185c3.556,0,5.664,1.943,5.664,6.326
			V29.85h-5.704V14.511c0-2.231-0.745-3.101-2.44-3.101c-1.943,0-3.018,1.199-3.018,3.68v14.76h-5.705V7.607z"/>
	</g>
	<g>
		<path fill="#1C2939" d="M0,40.686h1.029v8.254c0,1.721,0.74,2.558,2.253,2.558c1.512,0,2.252-0.837,2.252-2.558v-8.254h1.029v8.27
			c0,2.413-1.175,3.41-3.281,3.41C1.173,52.365,0,51.368,0,48.955V40.686z"/>
		<path fill="#1C2939" d="M8.439,50.531h1.092v1.641H8.439V50.531z"/>
		<path fill="#1C2939" d="M16.71,43.629c0-1.415-0.659-2.268-2.06-2.268c-1.399,0-2.171,0.918-2.171,2.059
			c0,3.428,5.565,1.545,5.565,5.583c0,2.221-1.382,3.362-3.476,3.362c-2.155,0-3.344-1.158-3.344-3.41v-0.338h1.029v0.434
			c0,1.465,0.771,2.446,2.283,2.446c1.447,0,2.477-0.725,2.477-2.333c0-3.41-5.565-1.465-5.565-5.631
			c0-1.802,1.176-3.041,3.17-3.041c2.14,0,3.12,1.095,3.12,3.137H16.71z"/>
		<path fill="#1C2939" d="M19.752,50.531h1.095v1.641h-1.095V50.531z"/>
		<path fill="#1C2939" d="M22.993,40.686h3.17c2.221,0,3.089,1.175,3.089,2.88c0,1.126-0.61,2.204-1.771,2.493v0.032
			c1.416,0.274,2.141,1.368,2.141,2.864c0,2.011-1.304,3.217-3.475,3.217h-3.154V40.686z M24.022,45.736h1.627
			c1.77,0,2.572-0.756,2.572-2.09c0-1.529-0.787-2.092-2.396-2.092h-1.804V45.736z M24.022,51.303h1.916
			c1.785,0,2.653-0.804,2.653-2.348c0-1.545-0.868-2.35-2.653-2.35h-1.916V51.303z"/>
		<path fill="#1C2939" d="M30.957,43.629h0.967v6.018c0,1.385,0.466,1.914,1.478,1.914c1.095,0,1.866-0.869,1.866-2.188v-5.744
			h0.968v8.543h-0.871v-1.189h-0.031c-0.482,0.949-1.319,1.383-2.188,1.383c-1.303,0-2.188-0.676-2.188-2.285V43.629z"/>
		<path fill="#1C2939" d="M39.225,47.925c-1.206-0.466-1.64-1.175-1.64-2.026c0-1.754,1.093-2.463,2.542-2.463
			c1.608,0,2.349,0.822,2.349,2.382v0.241h-0.965v-0.241c0-1.11-0.516-1.575-1.399-1.575c-1.126,0-1.562,0.594-1.562,1.446
			c0,0.596,0.193,1.062,1.157,1.433l1.4,0.53c1.159,0.435,1.593,1.239,1.593,2.173c0,1.463-0.837,2.541-2.639,2.541
			c-1.754,0-2.622-0.723-2.622-2.654v-0.273h0.965v0.225c0,1.256,0.547,1.898,1.642,1.898c1.03,0,1.689-0.578,1.689-1.528
			c0-0.756-0.305-1.238-1.157-1.575L39.225,47.925z"/>
		<path fill="#1C2939" d="M43.932,40.686h0.965v1.642h-0.965V40.686z M43.932,43.629h0.965v8.543h-0.965V43.629z"/>
		<path fill="#1C2939" d="M46.495,43.629h0.868v1.191h0.034c0.482-0.949,1.318-1.385,2.187-1.385c1.304,0,2.189,0.677,2.189,2.285
			v6.451h-0.967v-6.178c0-1.174-0.482-1.752-1.462-1.752c-1.127,0-1.883,0.867-1.883,2.187v5.743h-0.967V43.629z"/>
		<path fill="#1C2939" d="M58.656,49.342c-0.146,1.816-1.143,3.023-2.75,3.023c-1.804,0-2.865-1.255-2.865-4.472
			c0-2.961,1.062-4.458,2.943-4.458c1.9,0,2.752,1.305,2.752,4.152v0.354H54.07v0.402c0,2.461,0.868,3.217,1.817,3.217
			c1.014,0,1.643-0.725,1.804-2.219H58.656z M57.707,47.137c-0.033-2.123-0.628-2.895-1.819-2.895c-1.188,0-1.785,0.771-1.817,2.895
			H57.707z"/>
		<path fill="#1C2939" d="M61.408,47.925c-1.207-0.466-1.642-1.175-1.642-2.026c0-1.754,1.095-2.463,2.541-2.463
			c1.608,0,2.349,0.822,2.349,2.382v0.241h-0.964v-0.241c0-1.11-0.514-1.575-1.4-1.575c-1.126,0-1.562,0.594-1.562,1.446
			c0,0.596,0.193,1.062,1.16,1.433l1.399,0.53c1.158,0.435,1.593,1.239,1.593,2.173c0,1.463-0.836,2.541-2.638,2.541
			c-1.754,0-2.622-0.723-2.622-2.654v-0.273h0.964v0.225c0,1.256,0.548,1.898,1.641,1.898c1.029,0,1.688-0.578,1.688-1.528
			c0-0.756-0.305-1.238-1.157-1.575L61.408,47.925z"/>
		<path fill="#1C2939" d="M67.557,47.925c-1.206-0.466-1.642-1.175-1.642-2.026c0-1.754,1.095-2.463,2.542-2.463
			c1.608,0,2.349,0.822,2.349,2.382v0.241h-0.965v-0.241c0-1.11-0.514-1.575-1.399-1.575c-1.127,0-1.562,0.594-1.562,1.446
			c0,0.596,0.192,1.062,1.159,1.433l1.4,0.53c1.157,0.435,1.593,1.239,1.593,2.173c0,1.463-0.837,2.541-2.639,2.541
			c-1.754,0-2.622-0.723-2.622-2.654v-0.273h0.965v0.225c0,1.256,0.547,1.898,1.64,1.898c1.029,0,1.689-0.578,1.689-1.528
			c0-0.756-0.306-1.238-1.158-1.575L67.557,47.925z"/>
		<path fill="#1C2939" d="M76.191,40.686h1.029v11.486h-1.029V40.686z"/>
		<path fill="#1C2939" d="M79.02,43.629h0.868v1.191h0.034c0.448-0.949,1.223-1.385,2.171-1.385c1.03,0,1.656,0.629,1.786,1.497
			h0.031c0.386-0.949,1.079-1.497,2.172-1.497c1.19,0,1.979,0.677,1.979,2.205v6.531h-0.965v-6.386c0-1.015-0.467-1.544-1.335-1.544
			c-0.965,0-1.738,0.867-1.738,2.187v5.743h-0.965v-6.386c0-1.015-0.467-1.544-1.335-1.544c-0.967,0-1.738,0.867-1.738,2.187v5.743
			H79.02V43.629z"/>
		<path fill="#1C2939" d="M89.718,43.629h0.87v1.191h0.032c0.45-0.949,1.222-1.385,2.171-1.385c1.029,0,1.658,0.629,1.786,1.497
			h0.033c0.386-0.949,1.077-1.497,2.172-1.497c1.19,0,1.979,0.677,1.979,2.205v6.531h-0.965v-6.386c0-1.015-0.467-1.544-1.337-1.544
			c-0.965,0-1.736,0.867-1.736,2.187v5.743h-0.965v-6.386c0-1.015-0.467-1.544-1.337-1.544c-0.965,0-1.736,0.867-1.736,2.187v5.743
			h-0.967V43.629z"/>
		<path fill="#1C2939" d="M100.418,40.686h0.965v1.642h-0.965V40.686z M100.418,43.629h0.965v8.543h-0.965V43.629z"/>
		<path fill="#1C2939" d="M107.464,43.629h0.868v7.932c0,2.365-0.868,3.572-2.799,3.572c-1.658,0-2.526-0.869-2.542-2.092h0.965
			c0,0.805,0.756,1.287,1.61,1.287c1.173,0,1.801-0.82,1.801-2.333v-1.352h-0.033c-0.305,1.046-1.108,1.528-1.994,1.528
			c-1.319,0-2.638-0.869-2.638-4.278c0-2.944,0.853-4.458,2.734-4.458c0.933,0,1.688,0.548,1.994,1.514h0.033V43.629z
			 M105.549,51.368c1.144,0,1.818-0.837,1.818-3.572c0-2.719-0.675-3.554-1.818-3.554c-1.143,0-1.817,0.835-1.817,3.554
			C103.731,50.531,104.406,51.368,105.549,51.368z"/>
		<path fill="#1C2939" d="M109.914,43.629h0.967v1.336h0.031c0.37-0.949,1.157-1.529,2.155-1.529c0.112,0,0.225,0.018,0.339,0.049
			v0.966c-0.161-0.032-0.323-0.048-0.467-0.048c-1.062,0-2.059,0.771-2.059,2.43v5.34h-0.967V43.629z"/>
		<path fill="#1C2939" d="M114.044,46.172c0-1.754,0.836-2.736,2.638-2.736c1.77,0,2.414,0.918,2.414,2.27v5.052
			c0,0.482,0.161,0.708,0.498,0.708h0.273v0.707c-0.178,0.064-0.321,0.098-0.451,0.098c-0.756,0-1.238-0.178-1.238-1.062v-0.289
			h-0.031c-0.386,1.125-1.256,1.447-2.205,1.447c-1.496,0-2.172-0.934-2.172-2.412c0-1.127,0.514-2.028,1.721-2.365l1.819-0.516
			c0.675-0.193,0.819-0.354,0.819-1.352c0-1.094-0.61-1.479-1.479-1.479c-1.145,0-1.643,0.69-1.643,1.93H114.044z M118.129,47.346
			h-0.032c-0.096,0.29-0.644,0.467-1.029,0.563l-0.803,0.208c-0.967,0.259-1.465,0.758-1.465,1.771c0,0.997,0.514,1.673,1.351,1.673
			c1.175,0,1.979-0.885,1.979-2.413V47.346z"/>
		<path fill="#1C2939" d="M121.147,44.435h-1.175v-0.806h1.175v-2.364h0.965v2.364h1.512v0.806h-1.512v6.13
			c0,0.675,0.289,0.9,0.918,0.9c0.192,0,0.386-0.033,0.594-0.097v0.804c-0.112,0.064-0.352,0.098-0.675,0.098
			c-1.304,0-1.802-0.355-1.802-1.497V44.435z"/>
		<path fill="#1C2939" d="M124.56,40.686h0.967v1.642h-0.967V40.686z M124.56,43.629h0.967v8.543h-0.967V43.629z"/>
		<path fill="#1C2939" d="M129.722,43.436c1.882,0,2.943,1.497,2.943,4.458c0,2.976-1.062,4.472-2.943,4.472
			s-2.945-1.496-2.945-4.472C126.776,44.933,127.84,43.436,129.722,43.436z M129.722,51.561c1.076,0,1.913-0.933,1.913-3.667
			c0-2.72-0.837-3.651-1.913-3.651c-1.079,0-1.916,0.932-1.916,3.651C127.806,50.628,128.643,51.561,129.722,51.561z"/>
		<path fill="#1C2939" d="M133.885,43.629h0.868v1.191h0.034c0.481-0.949,1.318-1.385,2.187-1.385c1.304,0,2.189,0.677,2.189,2.285
			v6.451h-0.967v-6.178c0-1.174-0.482-1.752-1.463-1.752c-1.126,0-1.882,0.867-1.882,2.187v5.743h-0.967V43.629z"/>
		<path fill="#1C2939" d="M144.69,40.686h1.029v10.617h4.763v0.869h-5.792V40.686z"/>
		<path fill="#1C2939" d="M151.541,46.172c0-1.754,0.837-2.736,2.641-2.736c1.768,0,2.411,0.918,2.411,2.27v5.052
			c0,0.482,0.162,0.708,0.501,0.708h0.273v0.707c-0.178,0.064-0.323,0.098-0.451,0.098c-0.756,0-1.24-0.178-1.24-1.062v-0.289
			h-0.031c-0.386,1.125-1.254,1.447-2.203,1.447c-1.496,0-2.174-0.934-2.174-2.412c0-1.127,0.516-2.028,1.723-2.365l1.817-0.516
			c0.675-0.193,0.821-0.354,0.821-1.352c0-1.094-0.613-1.479-1.48-1.479c-1.143,0-1.641,0.69-1.641,1.93H151.541z M155.629,47.346
			h-0.032c-0.096,0.29-0.644,0.467-1.029,0.563l-0.806,0.208c-0.964,0.259-1.465,0.758-1.465,1.771c0,0.997,0.517,1.673,1.354,1.673
			c1.173,0,1.979-0.885,1.979-2.413V47.346z"/>
		<path fill="#1C2939" d="M157.43,43.629h1.029l1.449,7.578h0.032l1.545-7.578h1.189l1.449,7.578h0.031l1.449-7.578h1.029
			l-1.9,8.543h-1.142l-1.543-7.577h-0.034l-1.543,7.577h-1.142L157.43,43.629z"/>
		<path fill="#1C2939" d="M167.172,43.629h1.03l1.915,7.402h0.031l1.724-7.402h1.029l-2.494,9.235
			c-0.451,1.674-0.965,2.14-2.269,2.14c-0.258,0-0.45-0.016-0.644-0.031v-0.805c0.209,0.016,0.417,0.031,0.628,0.031
			c0.595,0,0.996-0.241,1.27-1.142l0.242-0.804L167.172,43.629z"/>
		<path fill="#1C2939" d="M178.887,49.342c-0.144,1.816-1.143,3.023-2.751,3.023c-1.801,0-2.864-1.255-2.864-4.472
			c0-2.961,1.063-4.458,2.945-4.458c1.897,0,2.75,1.305,2.75,4.152v0.354h-4.666v0.402c0,2.461,0.871,3.217,1.819,3.217
			c1.015,0,1.64-0.725,1.802-2.219H178.887z M177.938,47.137c-0.031-2.123-0.626-2.895-1.817-2.895c-1.19,0-1.785,0.771-1.819,2.895
			H177.938z"/>
		<path fill="#1C2939" d="M180.236,43.629h0.967v1.336h0.032c0.37-0.949,1.157-1.529,2.155-1.529c0.112,0,0.225,0.018,0.339,0.049
			v0.966c-0.161-0.032-0.323-0.048-0.467-0.048c-1.063,0-2.06,0.771-2.06,2.43v5.34h-0.967V43.629z"/>
	</g>
</g>
</svg>
