<?xml version="1.0" encoding="utf-8"?>
<!-- Generator: Adobe Illustrator 16.0.0, SVG Export Plug-In . SVG Version: 6.00 Build 0)  -->
<!DOCTYPE svg PUBLIC "-//W3C//DTD SVG 1.1//EN" "http://www.w3.org/Graphics/SVG/1.1/DTD/svg11.dtd">
<svg version="1.1" id="Layer_1" xmlns="http://www.w3.org/2000/svg" xmlns:xlink="http://www.w3.org/1999/xlink" x="0px" y="0px"
	 width="278px" height="31.834px" viewBox="0 0 278 31.834" enable-background="new 0 0 278 31.834" xml:space="preserve">
<g>
	<path fill="#1C2939" d="M0.179,0.331h10.997c4.878,0,7.854,2.562,7.854,7.606c0,3.928-1.571,6.573-4.92,7.277v0.082
		c4.052,0.537,4.672,2.77,4.755,9.012c0.041,3.102,0.207,4.713,1.322,5.293v0.248h-6.449c-0.578-0.828-0.703-1.943-0.743-3.102
		l-0.166-5.665c-0.083-2.314-1.117-3.721-3.514-3.721H6.131V29.85H0.179V0.331z M6.131,13.229h2.48c2.854,0,4.466-1.24,4.466-4.424
		c0-2.728-1.447-4.093-4.135-4.093H6.131V13.229z"/>
	<path fill="#1C2939" d="M30.336,7.027c6.863-0.123,8.765,3.97,8.765,11.701c0,7.606-2.233,11.699-8.765,11.699
		c-6.863,0.125-8.765-3.969-8.765-11.699C21.571,11.121,23.804,7.027,30.336,7.027z M30.336,26.541c2.315,0,3.059-2.273,3.059-7.812
		c0-5.541-0.743-7.814-3.059-7.814c-2.812,0-3.06,3.267-3.06,7.814C27.276,23.275,27.524,26.541,30.336,26.541z"/>
	<path fill="#1C2939" d="M41.843,7.607h5.458v2.604h0.083c1.198-2.192,3.266-3.185,5.664-3.185c3.556,0,5.663,1.943,5.663,6.326
		V29.85h-5.706V14.511c0-2.231-0.743-3.101-2.438-3.101c-1.942,0-3.018,1.199-3.018,3.68v14.76h-5.706V7.607z"/>
	<path fill="#1C2939" d="M62.029,14.428v-0.537c0-5.127,3.514-6.863,7.813-6.863c6.78,0,8.062,2.812,8.062,6.822v11.7
		c0,2.067,0.123,3.017,0.702,4.3H73.15c-0.372-0.703-0.537-1.572-0.703-2.314h-0.083c-1.322,2.314-2.935,2.895-5.663,2.895
		c-3.97,0-5.375-3.391-5.375-6.368c0-4.175,1.695-5.87,5.623-6.945l3.225-0.867c1.694-0.455,2.273-1.117,2.273-2.605
		c0-1.694-0.743-2.729-2.646-2.729c-1.736,0-2.646,1.158-2.646,2.895v0.619h-5.126V14.428z M72.447,18.729
		c-0.785,0.578-1.736,0.95-2.438,1.115c-2.314,0.496-3.226,1.613-3.226,3.598c0,1.694,0.621,3.1,2.15,3.1
		c1.529,0,3.514-0.991,3.514-3.431V18.729z"/>
	<path fill="#1C2939" d="M81.566,0.331h5.704V29.85h-5.704V0.331z"/>
	<path fill="#1C2939" d="M102.237,27.492h-0.083c-1.24,2.066-2.811,2.936-5.044,2.936c-4.671,0-6.82-3.432-6.82-11.699
		c0-8.27,2.149-11.701,6.82-11.701c2.15,0,3.597,0.869,4.796,2.646h0.082V0.331h5.706V29.85h-5.457V27.492z M98.972,26.045
		c2.521,0,3.017-2.48,3.017-7.316c0-4.838-0.496-7.318-3.017-7.318c-2.481,0-2.978,2.48-2.978,7.318
		C95.994,23.564,96.49,26.045,98.972,26.045z"/>
	<path fill="#1C2939" d="M127.335,0.331h7.358l7.814,29.519h-6.201l-1.364-6.244h-7.855l-1.364,6.244h-6.201L127.335,0.331z
		 M128.121,18.729h5.787l-2.852-13.271h-0.083L128.121,18.729z"/>
	<path fill="#1C2939" d="M150.54,23.4v6.45h-5.458V23.4H150.54z"/>
	<path fill="#1C2939" d="M162.859,25.508l10.873-20.299h-10.129V0.331h16.992v4.506l-11.039,20.134h11.205v4.878h-17.902V25.508z"/>
	<path fill="#1C2939" d="M183.323,0h5.704v4.879h-5.704V0z M183.323,7.607h5.704V29.85h-5.704V7.607z"/>
	<path fill="#1C2939" d="M196.884,22.573v0.743c0,1.943,1.034,3.225,2.978,3.225c1.736,0,2.894-0.867,2.894-2.646
		c0-1.446-0.948-2.108-2.065-2.521l-4.01-1.446c-3.143-1.117-4.756-3.061-4.756-6.202c0-3.679,2.315-6.698,8.186-6.698
		c5.168,0,7.606,2.316,7.606,6.326v0.91h-5.125c0-2.233-0.661-3.35-2.521-3.35c-1.448,0-2.688,0.827-2.688,2.398
		c0,1.074,0.578,1.984,2.479,2.604l3.433,1.157c3.597,1.199,4.919,3.018,4.919,6.367c0,4.672-3.473,6.986-8.27,6.986
		c-6.406,0-8.186-2.811-8.186-7.069v-0.785h5.126V22.573z"/>
	<path fill="#1C2939" d="M210.777,7.607h5.455V9.88h0.084c1.447-2.025,3.225-2.854,5.623-2.854c2.604,0,4.506,1.283,5.125,3.557
		h0.084c0.867-2.357,2.936-3.557,5.621-3.557c3.764,0,5.541,2.357,5.541,6.656V29.85h-5.707V14.305c0-1.861-0.619-2.895-2.23-2.895
		c-1.818,0-2.977,1.24-2.977,3.805V29.85h-5.707V14.305c0-1.861-0.619-2.895-2.23-2.895c-1.82,0-2.979,1.24-2.979,3.805V29.85
		h-5.703V7.607L210.777,7.607z"/>
	<path fill="#1C2939" d="M241.676,14.428v-0.537c0-5.127,3.514-6.863,7.812-6.863c6.779,0,8.062,2.812,8.062,6.822v11.7
		c0,2.067,0.123,3.017,0.702,4.3h-5.457c-0.372-0.703-0.537-1.572-0.703-2.314h-0.082c-1.322,2.314-2.935,2.895-5.664,2.895
		c-3.969,0-5.373-3.391-5.373-6.368c0-4.175,1.693-5.87,5.621-6.945l3.225-0.867c1.695-0.455,2.273-1.117,2.273-2.605
		c0-1.694-0.742-2.729-2.646-2.729c-1.735,0-2.646,1.158-2.646,2.895v0.619h-5.124V14.428z M252.093,18.729
		c-0.784,0.578-1.735,0.95-2.438,1.115c-2.315,0.496-3.225,1.613-3.225,3.598c0,1.694,0.619,3.1,2.149,3.1
		c1.528,0,3.514-0.991,3.514-3.431V18.729L252.093,18.729z"/>
	<path fill="#1C2939" d="M261.133,7.607h5.457v2.604h0.083c1.199-2.192,3.267-3.185,5.663-3.185c3.557,0,5.664,1.943,5.664,6.326
		V29.85h-5.704V14.511c0-2.231-0.745-3.101-2.44-3.101c-1.942,0-3.018,1.199-3.018,3.68v14.76h-5.705V7.607z"/>
</g>
</svg>
